<svg width="41" height="51" viewBox="0 0 41 51" fill="none" xmlns="http://www.w3.org/2000/svg">
<path d="M20.0368 29.1429C18.2356 29.1429 16.4748 28.6088 14.9772 27.608C13.4795 26.6073 12.3122 25.185 11.6229 23.5209C10.9336 21.8568 10.7533 20.0256 11.1047 18.259C11.4561 16.4924 12.3235 14.8697 13.5971 13.596C14.8708 12.3224 16.4935 11.455 18.2601 11.1036C20.0267 10.7522 21.8579 10.9325 23.522 11.6218C25.1861 12.3111 26.6084 13.4784 27.6091 14.9761C28.6099 16.4737 29.144 18.2345 29.144 20.0357C29.1411 22.4502 28.1807 24.765 26.4734 26.4723C24.7661 28.1796 22.4513 29.14 20.0368 29.1429ZM20.0368 14.5715C18.9561 14.5715 17.8996 14.8919 17.001 15.4923C16.1024 16.0928 15.4021 16.9462 14.9885 17.9446C14.5749 18.9431 14.4667 20.0418 14.6775 21.1018C14.8884 22.1617 15.4088 23.1354 16.173 23.8996C16.9372 24.6638 17.9108 25.1842 18.9708 25.395C20.0308 25.6059 21.1295 25.4977 22.1279 25.0841C23.1264 24.6705 23.9798 23.9701 24.5802 23.0715C25.1806 22.1729 25.5011 21.1165 25.5011 20.0357C25.4997 18.587 24.9235 17.1979 23.8991 16.1735C22.8746 15.1491 21.4856 14.5729 20.0368 14.5715Z" fill="black"/>
<path d="M20.0357 51L4.67016 32.8786C4.45666 32.6065 4.24537 32.3327 4.03631 32.0571C1.41159 28.5997 -0.00634074 24.3766 2.1316e-05 20.0357C2.1316e-05 14.7219 2.11092 9.62575 5.86835 5.86833C9.62577 2.1109 14.7219 0 20.0357 0C25.3495 0 30.4457 2.1109 34.2031 5.86833C37.9606 9.62575 40.0714 14.7219 40.0714 20.0357C40.0778 24.3746 38.6605 28.5958 36.037 32.0517L36.0352 32.0571C36.0352 32.0571 35.4887 32.7748 35.4068 32.8713L20.0357 51ZM6.94331 29.8623C6.94695 29.8623 7.36952 30.4233 7.46606 30.5435L20.0357 45.3681L32.6218 30.5235C32.702 30.4233 33.1282 29.8587 33.13 29.8569C35.2741 27.032 36.4328 23.5821 36.4286 20.0357C36.4286 15.6881 34.7015 11.5185 31.6272 8.44421C28.553 5.36996 24.3834 3.64286 20.0357 3.64286C15.6881 3.64286 11.5185 5.36996 8.44423 8.44421C5.36998 11.5185 3.64288 15.6881 3.64288 20.0357C3.63906 23.5843 4.79908 27.0362 6.94513 29.8623H6.94331Z" fill="black"/>
</svg>
